<svg width="150" height="68" viewBox="0 0 150 68" fill="none" xmlns="http://www.w3.org/2000/svg">
<g clip-path="url(#clip0_65_223)">
<path d="M150 0H0V67.8877H150V0Z" fill="#ED1B24"/>
<path d="M129.536 9.63428H137.927V49.4234H145.043V59.4563H129.536V9.63428Z" fill="white"/>
<path d="M145.776 12.28C145.776 14.0412 144.35 15.4756 142.581 15.4756C140.812 15.4756 139.385 14.0491 139.385 12.28C139.385 10.5109 140.812 9.08447 142.581 9.08447C144.35 9.08447 145.776 10.5109 145.776 12.28V12.28Z" stroke="white" stroke-width="1.67"/>
<path d="M141.338 13.9296V10.5747H142.82C143.115 10.5747 143.346 10.6066 143.505 10.6624C143.657 10.7261 143.784 10.8297 143.88 10.9811C143.976 11.1325 144.023 11.2999 144.023 11.4832C144.023 11.7222 143.944 11.9215 143.792 12.0808C143.641 12.2482 143.402 12.3438 143.083 12.3916C143.203 12.4474 143.29 12.5032 143.354 12.559C143.482 12.6785 143.609 12.8299 143.721 13.0052L144.302 13.9137H143.745L143.306 13.2204C143.179 13.0212 143.067 12.8618 142.987 12.7582C142.908 12.6546 142.828 12.5749 142.764 12.5351C142.701 12.4952 142.629 12.4634 142.565 12.4474C142.517 12.4394 142.43 12.4315 142.318 12.4315H141.808V13.9217H141.362L141.338 13.9296ZM141.784 12.0569H142.74C142.94 12.0569 143.099 12.033 143.219 11.9932C143.33 11.9533 143.418 11.8816 143.482 11.794C143.537 11.6983 143.569 11.6027 143.569 11.4911C143.569 11.3318 143.513 11.2043 143.394 11.1007C143.282 10.9971 143.099 10.9492 142.852 10.9492H141.792V12.0569H141.784Z" fill="white"/>
<path d="M6.16797 59.273V9.63428H17.4839L21.5003 30.4413L26.0585 9.63428H37.0079V54.3482L44.1242 9.63428H55.2568L62.1899 54.3482V9.81756H76.9723C76.9723 9.81756 82.0804 10.726 84.6385 17.8503L83.5467 9.63428H92.4879L96.6875 35.3661L101.07 9.81756H126.252V19.1253H118.77V29.3416H125.886V39.7411H118.953V49.2321H126.252V59.273H110.012V11.4592L101.612 59.273H91.5794L86.288 27.5167C86.288 27.5167 85.3796 36.2746 80.4468 40.2909L86.8379 59.273H78.08L71.8722 42.6657V59.273H54.1731L53.2646 54.5315H46.5149L45.0566 59.273H28.2659V41.0241L23.883 59.273H19.3247L15.3084 41.2074V59.0897L6.18391 59.273H6.16797ZM52.3402 44.8571L49.7822 29.7081L47.5907 44.8571H52.3322H52.3402ZM71.6809 33.3579C77.7055 32.9913 77.1556 25.5085 77.1556 25.5085C76.2471 18.2089 71.6809 18.5755 71.6809 18.5755V33.3579Z" fill="white"/>
</g>
<defs>
<clipPath id="clip0_65_223">
<rect width="150" height="67.8877" fill="white"/>
</clipPath>
</defs>
</svg>
